<svg xmlns="http://www.w3.org/2000/svg" fill="none" viewBox="0 0 20 20">
    <g clip-path="url(#a)">
        <path fill="url(#grad)" d="M12.0938 7.12002c.0302.42032.3659.75599.7861.78617 3.8949.27961 6.72 1.1113 6.72 2.09381 0 .9826-2.8251 1.8142-6.72 2.0939-.4202.0301-.7559.3657-.7861.7861-.2796 3.8948-1.1113 6.72-2.09392 6.72-.98251 0-1.81429-2.8252-2.09387-6.72-.03017-.4204-.36585-.756-.78617-.7861C3.22506 11.8142.3999 10.9826.3999 10c0-.98251 2.82516-1.8142 6.71994-2.09381.42032-.03018.756-.36585.78617-.78617.27958-3.8948 1.11136-6.72 2.09387-6.72.98262 0 1.81432 2.8252 2.09392 6.72Z"/>
        <path fill="#812DF0" opacity=".7" d="M12.9763 7.2573c-.134-.01167-.2414-.11909-.2532-.25328-.0473-.5424-.107-1.06543-.1779-1.56484-.0436-.30585.0802-.61394.333-.79159 1.9081-1.34124 3.4038-1.9422 3.9072-1.43896.5023.50235-.0954 1.99316-1.4313 3.89613-.1777.25321-.4863.37713-.7926.33335-.5054-.07228-1.0353-.13294-1.5852-.18081ZM15.3541 12.8889c-.1777-.2532-.4863-.3772-.7926-.3334-.5054.0724-1.0353.133-1.5852.1809-.134.0117-.2414.119-.2532.2533-.0473.5424-.107 1.0655-.1779 1.5648-.0436.3059.0802.6139.333.7916 1.9083 1.3413 3.4038 1.9423 3.9072 1.4391.5023-.5025-.0954-1.9934-1.4313-3.8963ZM7.09023 15.3642c.25346-.1776.37761-.4863.33385-.7927-.07206-.5046-.1326-1.0333-.18028-1.5818-.01178-.1343-.11915-.2416-.25328-.2533-.54107-.0471-1.06289-.1066-1.56115-.1773-.30605-.0435-.61432.0805-.79187.3335-1.33407 1.9013-1.93063 3.3905-1.4287 3.8926.50118.5008 1.98551-.0924 3.88143-1.421ZM5.42937 7.43467c-.30605.04347-.61432-.08052-.79187-.33357-1.33407-1.90122-1.93063-3.39049-1.4287-3.89248.50118-.50098 1.9855.09237 3.88141 1.42089.25347.17763.37762.48635.33387.79275-.07206.50449-.1326 1.0332-.18028 1.58174-.01178.1342-.11915.24161-.25328.25328-.54107.0471-1.06289.10661-1.56115.17739Z"/>
    </g>
    <defs>
        <linearGradient id="grad" x1="6.5" x2="17.5" y1="0" y2="18.5" gradientUnits="userSpaceOnUse">
            <stop stop-color="#A53DFE"/>
            <stop offset="1" stop-color="#5819DF"/>
        </linearGradient>
        <clipPath id="a">
            <path fill="#fff" d="M0 0h20v20H0z"/>
        </clipPath>
    </defs>
</svg>
